<?xml version="1.0" encoding="utf-8"?>
<!-- Generator: Adobe Illustrator 23.0.1, SVG Export Plug-In . SVG Version: 6.00 Build 0)  -->
<svg version="1.1" id="Layer_1" xmlns="http://www.w3.org/2000/svg" xmlns:xlink="http://www.w3.org/1999/xlink" x="0px" y="0px"
	 viewBox="0 0 338.02 59.57" style="enable-background:new 0 0 338.02 59.57;" xml:space="preserve">
<style type="text/css">
	.st0{fill:#00A5B8;}
	.st1{fill:#F79120;}
	.st2{fill:#005776;}
	.st3{fill:#444B4E;}
</style>
<g id="Art">
	<polygon class="st0" points="0.03,41.79 0,0 18.95,0 18.97,20.68 	"/>
	<polygon class="st1" points="18.98,46.31 18.97,20.68 37.52,0 60.3,0 	"/>
	<polygon class="st2" points="37.52,0 18.97,20.68 18.95,0 	"/>
	<path class="st3" d="M55.7,28.93l4.04,17.42l5.2-17.42h5.81l5.14,17.42l4.09-17.42h6.97l-7.19,29.92h-6.41l-5.54-18.42l-5.7,18.42
		h-6.47l-6.96-29.92H55.7z"/>
	<path class="st3" d="M98.04,21.13c0,2.43-1.71,4.15-4.09,4.15s-4.04-1.71-4.04-4.15c0-2.43,1.66-4.15,4.04-4.15
		S98.04,18.7,98.04,21.13z M98.04,21.13c0,2.43-1.71,4.15-4.09,4.15s-4.04-1.71-4.04-4.15c0-2.43,1.66-4.15,4.04-4.15
		S98.04,18.7,98.04,21.13z M97.71,28.93v29.92h-7.47V28.93H97.71z"/>
	<path class="st3" d="M127.68,17.98v40.87h-7.02v-2.82c-1.88,2.1-4.53,3.54-7.96,3.54c-7.96,0-11.06-8.02-11.06-15.65
		c0-7.69,3.1-15.71,11.06-15.71c3.1,0,5.59,1.22,7.47,3.04V20.52L127.68,17.98z M120.16,49.44V38.33c-1.27-1.88-3.04-3.26-5.59-3.26
		c-4.37,0-5.86,4.04-5.86,8.85s1.49,8.85,5.86,8.85C117.12,52.76,118.89,51.38,120.16,49.44z"/>
	<path class="st3" d="M138.4,46.18c0.72,4.76,3.59,6.69,6.64,6.69c2.32,0,3.98-1.16,5.14-2.88l4.98,4.31
		c-1.71,2.27-5.09,5.25-10.56,5.25c-7.24,0-13.22-5.42-13.22-15.71c0-10.18,5.36-15.65,12.83-15.65c7.58,0,13,5.53,13,15.48
		c0,1.27-0.06,1.71-0.17,2.49H138.4V46.18z M138.46,40.76h11.67c-0.77-3.82-2.93-5.81-5.86-5.81
		C141.28,34.95,139.18,37.06,138.46,40.76z"/>
	<path class="st3" d="M177.95,35.53c-1.8-0.7-4.19-0.95-6.11-0.2c-1.63,0.64-2.77,2.04-3.46,3.6v19.91h-7.47V28.93h6.97v2.6
		c1.94-2.21,4.37-3.32,7.3-3.32c1.91,0,3.6,0.29,5.45,0.92C180.62,29.13,177.95,35.53,177.95,35.53z"/>
	<path class="st3" d="M199.23,24.06c-0.44-0.06-1.49-0.17-2.43-0.17c-1.44,0-2.54,0.61-2.54,2.54v2.49h4.87v6.61h-4.87v23.31h-7.52
		V35.53h-5.5l2.75-6.61h2.75v-3.76c0-5.97,3.32-7.52,7.91-7.52c2.27,0,3.7,0.17,4.59,0.39v6.03H199.23z"/>
	<path class="st3" d="M209.85,28.93v18.8c0,3.37,2.21,4.81,5.03,4.81c1.99,0,3.93-0.72,5.25-3.59V28.93h7.52v29.92h-7.02V56.2
		c-2.1,2.27-4.92,3.37-8.35,3.37c-5.92,0-9.9-3.37-9.9-10.51V28.93H209.85z"/>
	<path class="st3" d="M239.32,28.93v2.71c2.1-2.27,4.87-3.43,8.35-3.43c5.92,0,9.95,3.37,9.95,11.67v18.97h-7.52V40.76
		c0-4.04-1.94-5.53-4.98-5.53c-2.05,0-4.04,0.72-5.31,3.65v19.96h-7.47V28.93H239.32z"/>
	<path class="st3" d="M269.46,28.93v2.71c2.1-2.27,4.87-3.43,8.35-3.43c5.92,0,9.95,3.37,9.95,11.67v18.97h-7.52V40.76
		c0-4.04-1.94-5.53-4.98-5.53c-2.05,0-4.04,0.72-5.31,3.65v19.96h-7.47V28.93H269.46z"/>
	<path class="st3" d="M298.43,46.18c0.72,4.76,3.59,6.69,6.64,6.69c2.32,0,3.98-1.16,5.14-2.88l4.98,4.31
		c-1.71,2.27-5.09,5.25-10.56,5.25c-7.24,0-13.22-5.42-13.22-15.71c0-10.18,5.37-15.65,12.83-15.65c7.58,0,13,5.53,13,15.48
		c0,1.27-0.06,1.71-0.17,2.49h-18.64V46.18z M298.49,40.76h11.67c-0.77-3.82-2.93-5.81-5.86-5.81
		C301.31,34.95,299.2,37.06,298.49,40.76z"/>
	<path class="st3" d="M328.73,17.98v40.87h-7.47V20.52L328.73,17.98z"/>
	<g>
		<path class="st3" d="M331.53,55.95c0-1.8,1.45-3.26,3.24-3.26c1.8,0,3.25,1.46,3.25,3.26c0,1.79-1.45,3.24-3.25,3.24
			C332.98,59.19,331.53,57.74,331.53,55.95z M334.77,52.97c-1.62,0-2.94,1.35-2.94,2.98c0,1.63,1.32,2.97,2.94,2.97
			c1.63,0,2.95-1.34,2.95-2.97S336.4,52.97,334.77,52.97z M334.29,57.61h-0.85v-3.4c0,0,1.4,0,1.43,0c0.89,0,1.39,0.42,1.39,1.09
			c0,0.46-0.22,0.81-0.65,0.98l0.81,1.33h-0.93l-0.66-1.15l-0.54,0.03V57.61z M334.74,55.89c0.46-0.01,0.66-0.2,0.66-0.54
			c0-0.34-0.21-0.5-0.67-0.5c-0.02,0-0.46,0-0.46,0v1.05L334.74,55.89z"/>
	</g>
</g>
<g id="Guidesl">
</g>
</svg>
